<?xml version="1.0" encoding="utf-8"?>
<!-- Generator: Adobe Illustrator 23.0.0, SVG Export Plug-In . SVG Version: 6.00 Build 0)  -->
<svg version="1.1" id="Layer_1" xmlns="http://www.w3.org/2000/svg" xmlns:xlink="http://www.w3.org/1999/xlink" x="0px" y="0px"
	 viewBox="0 0 30 30" style="enable-background:new 0 0 30 30;" xml:space="preserve">
<style type="text/css">
	.st0{fill:#ABB2BF;}
</style>
<path class="st0" d="M3.9,17.6c0-1,0.3-1.9,0.9-2.6s1.4-1.3,2.4-1.5c0.3-1.2,0.8-2.1,1.8-2.9c0.9-0.8,2-1.1,3.2-1.1
	c1.2,0,2.2,0.4,3.2,1.1c0.9,0.7,1.5,1.7,1.8,2.8h0.3c1.2,0,2.2,0.4,3,1.2s1.3,1.8,1.3,3c0,1.2-0.4,2.2-1.3,3s-1.8,1.3-3,1.3H8.2
	c-0.6,0-1.1-0.1-1.7-0.3s-1-0.5-1.4-0.9s-0.7-0.8-0.9-1.4S3.9,18.2,3.9,17.6z M5.3,17.6c0,0.8,0.3,1.4,0.8,2s1.2,0.8,2,0.8h9.3
	c0.8,0,1.4-0.3,2-0.8s0.8-1.2,0.8-2c0-0.8-0.3-1.4-0.8-2c-0.5-0.5-1.2-0.8-2-0.8H16c-0.1,0-0.1-0.1-0.1-0.1l-0.1-0.5
	c-0.1-0.9-0.5-1.7-1.2-2.3s-1.5-0.9-2.4-0.9s-1.8,0.3-2.5,0.9c-0.7,0.6-1.1,1.4-1.2,2.3l-0.1,0.4c0,0.1-0.1,0.1-0.2,0.1l-0.4,0.1
	c-0.7,0.1-1.3,0.4-1.8,0.9C5.6,16.2,5.3,16.9,5.3,17.6z M14.2,8.9C14.1,9,14.1,9,14.3,9.1c0.4,0.2,0.8,0.4,1.1,0.6
	c0.1,0,0.2,0,0.2,0c0.6-0.6,1.3-0.9,2.1-0.9c0.8,0,1.5,0.3,2.1,0.8c0.6,0.5,0.9,1.2,1,2l0.1,0.6h1.4c0.6,0,1.2,0.2,1.7,0.7
	s0.7,1,0.7,1.7c0,0.6-0.2,1.1-0.6,1.6c-0.4,0.5-0.9,0.7-1.5,0.8c-0.1,0-0.1,0-0.1,0.2v1.1c0,0.1,0,0.2,0.1,0.2
	c1-0.1,1.9-0.5,2.5-1.2s1-1.6,1-2.6c0-1.1-0.4-2-1.1-2.7c-0.8-0.8-1.6-1.1-2.7-1.1h-0.1c-0.3-1-0.8-1.8-1.6-2.5
	c-0.8-0.7-1.8-1-2.8-1C16.3,7.3,15.1,7.8,14.2,8.9z"/>
</svg>
