<?xml version="1.0" encoding="utf-8"?>
<!-- Generator: Adobe Illustrator 23.0.0, SVG Export Plug-In . SVG Version: 6.00 Build 0)  -->
<svg version="1.1" id="Layer_1" xmlns="http://www.w3.org/2000/svg" xmlns:xlink="http://www.w3.org/1999/xlink" x="0px" y="0px"
	 viewBox="0 0 30 30" style="enable-background:new 0 0 30 30;" xml:space="preserve">
<style type="text/css">
	.st0{fill:#ABB2BF;}
</style>
<path class="st0" d="M4.6,16.9c0-1.1,0.4-2.2,1.1-3.1s1.6-1.5,2.7-1.7c0.3-1.4,1-2.5,2.1-3.4s2.3-1.3,3.8-1.3c1.4,0,2.6,0.4,3.7,1.3
	s1.8,1.9,2.1,3.3h0.3c0.9,0,1.7,0.2,2.5,0.6s1.4,1,1.8,1.8c0.4,0.8,0.7,1.6,0.7,2.5c0,0.9-0.2,1.7-0.6,2.4s-1,1.4-1.7,1.8
	c-0.7,0.5-1.5,0.7-2.4,0.7c-0.1,0-0.2-0.1-0.2-0.2v-1.3c0-0.1,0.1-0.2,0.2-0.2c0.9,0,1.6-0.4,2.2-1s0.9-1.4,0.9-2.3s-0.3-1.6-1-2.3
	s-1.4-1-2.3-1h-1.6c-0.1,0-0.2-0.1-0.2-0.2l-0.1-0.6c-0.1-1.1-0.6-2-1.4-2.7c-0.8-0.7-1.8-1.1-2.9-1.1s-2.1,0.4-2.9,1.1
	c-0.8,0.7-1.3,1.6-1.4,2.7L10,13.5c0,0.1-0.1,0.2-0.2,0.2l-0.5,0c-0.8,0.1-1.5,0.5-2.1,1.1s-0.8,1.3-0.8,2.2c0,0.9,0.3,1.6,0.9,2.3
	s1.3,1,2.2,1c0.1,0,0.2,0.1,0.2,0.2v1.3c0,0.1-0.1,0.2-0.2,0.2c-1.3-0.1-2.5-0.6-3.4-1.5S4.6,18.2,4.6,16.9z M10,23.6
	c0,0,0-0.1,0-0.2l1.6-5.8c0.1-0.2,0.2-0.3,0.3-0.4s0.3-0.1,0.5-0.1c0.1,0,0.1,0,0.2,0c0.2,0,0.4,0.2,0.5,0.4s0.1,0.4,0.1,0.7
	l-1.6,5.7c-0.1,0.4-0.4,0.6-0.8,0.6c0,0-0.1,0-0.1,0c-0.1,0-0.1,0-0.1,0c-0.2-0.1-0.4-0.2-0.5-0.3C10,23.9,10,23.8,10,23.6z
	 M12.6,26.4l2.4-8.8c0-0.2,0.1-0.3,0.3-0.4s0.3-0.1,0.5-0.1c0.1,0,0.2,0,0.3,0c0.2,0.1,0.4,0.2,0.5,0.4c0.1,0.2,0.1,0.4,0.1,0.6
	l-2.4,8.8c0,0.2-0.1,0.3-0.3,0.4s-0.3,0.2-0.5,0.2c-0.1,0-0.2,0-0.3,0c-0.2,0-0.4-0.2-0.5-0.4C12.6,26.9,12.5,26.7,12.6,26.4z
	 M16.7,23.6c0,0,0-0.1,0-0.2l1.6-5.8c0.1-0.2,0.2-0.3,0.3-0.4c0.1-0.1,0.3-0.1,0.5-0.1c0.1,0,0.2,0,0.3,0c0.2,0.1,0.4,0.2,0.5,0.3
	c0.1,0.1,0.1,0.3,0.1,0.5c0,0,0,0.1,0,0.1s0,0.1,0,0.1l-1.6,5.7c0,0.2-0.1,0.4-0.3,0.5s-0.3,0.2-0.5,0.2l-0.2,0
	c-0.2-0.1-0.4-0.2-0.5-0.3C16.8,23.9,16.7,23.8,16.7,23.6z"/>
</svg>
