<?xml version="1.0" encoding="utf-8"?>
<!-- Generator: Adobe Illustrator 23.0.0, SVG Export Plug-In . SVG Version: 6.00 Build 0)  -->
<svg version="1.1" id="Layer_1" xmlns="http://www.w3.org/2000/svg" xmlns:xlink="http://www.w3.org/1999/xlink" x="0px" y="0px"
	 viewBox="0 0 30 30" style="enable-background:new 0 0 30 30;" xml:space="preserve">
<style type="text/css">
	.st0{fill:#ABB2BF;}
</style>
<path class="st0" d="M4.6,16.9c0-1.2,0.3-2.2,1.1-3.1s1.6-1.5,2.7-1.8c0.3-1.4,1-2.5,2.1-3.4s2.3-1.3,3.8-1.3c1.4,0,2.6,0.4,3.7,1.3
	s1.8,1.9,2.1,3.3h0.3c0.9,0,1.7,0.2,2.5,0.7s1.4,1,1.8,1.8c0.4,0.8,0.7,1.6,0.7,2.5c0,1.3-0.5,2.5-1.4,3.4c-0.9,1-2,1.5-3.4,1.5
	c-0.1,0-0.2-0.1-0.2-0.2v-1.3c0-0.1,0.1-0.2,0.2-0.2c0.9,0,1.6-0.4,2.2-1s0.9-1.4,0.9-2.2c0-0.9-0.3-1.6-1-2.3s-1.4-1-2.3-1h-1.6
	c-0.1,0-0.2-0.1-0.2-0.2l-0.1-0.6c-0.1-1.1-0.6-2-1.4-2.7c-0.8-0.7-1.8-1.1-2.9-1.1c-1.1,0-2.1,0.4-2.9,1.1
	c-0.8,0.7-1.3,1.6-1.4,2.8L10,13.5c0,0.1-0.1,0.2-0.2,0.2l-0.5,0.1c-0.8,0.1-1.5,0.4-2.1,1s-0.8,1.3-0.8,2.2c0,0.9,0.3,1.6,0.9,2.2
	s1.3,1,2.2,1c0.1,0,0.2,0.1,0.2,0.2v1.3c0,0.1-0.1,0.2-0.2,0.2c-1.3,0-2.5-0.5-3.4-1.5C5.1,19.4,4.6,18.3,4.6,16.9z M11,21
	c0-0.2,0.1-0.4,0.2-0.6s0.4-0.2,0.6-0.2c0.2,0,0.4,0.1,0.6,0.2s0.2,0.4,0.2,0.6c0,0.2-0.1,0.4-0.2,0.6c-0.2,0.2-0.4,0.3-0.6,0.3
	c-0.2,0-0.4-0.1-0.6-0.3C11.1,21.5,11,21.3,11,21z M11,24.6c0-0.2,0.1-0.4,0.2-0.6c0.2-0.1,0.4-0.2,0.6-0.2s0.4,0.1,0.6,0.2
	c0.2,0.2,0.2,0.4,0.2,0.6s-0.1,0.4-0.2,0.6s-0.4,0.2-0.6,0.2c-0.2,0-0.4-0.1-0.6-0.2C11.1,25.1,11,24.9,11,24.6z M14.2,22.9
	c0-0.2,0.1-0.4,0.3-0.6c0.2-0.2,0.4-0.2,0.6-0.2c0.2,0,0.4,0.1,0.6,0.3s0.3,0.4,0.3,0.6s-0.1,0.4-0.3,0.6s-0.4,0.3-0.6,0.3
	c-0.2,0-0.4-0.1-0.6-0.3S14.2,23.2,14.2,22.9z M14.2,19.3c0-0.2,0.1-0.4,0.3-0.6c0.2-0.2,0.4-0.2,0.6-0.2c0.2,0,0.4,0.1,0.6,0.3
	s0.3,0.4,0.3,0.6c0,0.2-0.1,0.4-0.3,0.6s-0.4,0.2-0.6,0.2c-0.2,0-0.4-0.1-0.6-0.2C14.3,19.8,14.2,19.6,14.2,19.3z M14.2,26.6
	c0-0.2,0.1-0.4,0.3-0.6c0.2-0.2,0.4-0.2,0.6-0.2c0.2,0,0.4,0.1,0.6,0.3s0.3,0.4,0.3,0.6s-0.1,0.4-0.3,0.6s-0.4,0.2-0.6,0.2
	c-0.2,0-0.4-0.1-0.6-0.2C14.3,27,14.2,26.8,14.2,26.6z M17.4,21c0-0.2,0.1-0.4,0.3-0.6s0.4-0.3,0.6-0.3s0.4,0.1,0.6,0.2
	s0.2,0.4,0.2,0.6c0,0.2-0.1,0.4-0.2,0.6c-0.2,0.2-0.4,0.3-0.6,0.3s-0.4-0.1-0.6-0.3C17.5,21.4,17.4,21.2,17.4,21z M17.4,24.6
	c0-0.2,0.1-0.4,0.3-0.6c0.2-0.1,0.4-0.2,0.6-0.2s0.4,0.1,0.6,0.2s0.2,0.4,0.2,0.6s-0.1,0.4-0.2,0.6c-0.2,0.2-0.4,0.2-0.6,0.2
	s-0.4-0.1-0.6-0.2C17.5,25.1,17.4,24.9,17.4,24.6z"/>
</svg>
