<?xml version="1.0" encoding="utf-8"?>
<!-- Generator: Adobe Illustrator 23.0.0, SVG Export Plug-In . SVG Version: 6.00 Build 0)  -->
<svg version="1.1" id="Layer_1" xmlns="http://www.w3.org/2000/svg" xmlns:xlink="http://www.w3.org/1999/xlink" x="0px" y="0px"
	 viewBox="0 0 30 30" style="enable-background:new 0 0 30 30;" xml:space="preserve">
<style type="text/css">
	.st0{fill:#ABB2BF;}
</style>
<path class="st0" d="M4.4,14.6c0-0.2,0.1-0.4,0.3-0.6c0.2-0.2,0.4-0.2,0.6-0.2h2c0.2,0,0.4,0.1,0.6,0.3c0.2,0.2,0.2,0.4,0.2,0.6
	S8,15.1,7.8,15.2c-0.2,0.2-0.3,0.3-0.6,0.3h-2c-0.2,0-0.4-0.1-0.6-0.3C4.5,15.1,4.4,14.9,4.4,14.6z M7.2,21.5c0-0.2,0.1-0.4,0.2-0.6
	l1.5-1.4c0.1-0.2,0.4-0.2,0.6-0.2s0.4,0.1,0.6,0.2s0.2,0.3,0.2,0.6c0,0.2-0.1,0.5-0.2,0.6l-1.4,1.4c-0.4,0.3-0.8,0.3-1.2,0
	C7.3,22,7.2,21.8,7.2,21.5z M7.2,7.7c0-0.2,0.1-0.4,0.2-0.6c0.2-0.2,0.4-0.3,0.6-0.3c0.2,0,0.4,0.1,0.6,0.2l1.4,1.5
	c0.2,0.1,0.2,0.4,0.2,0.6s-0.1,0.4-0.2,0.6S9.8,10,9.5,10c-0.2,0-0.4-0.1-0.6-0.2L7.5,8.3C7.3,8.2,7.2,7.9,7.2,7.7z M9.8,14.6
	c0-0.9,0.2-1.8,0.7-2.6s1.1-1.4,1.9-1.9s1.7-0.7,2.6-0.7c0.7,0,1.4,0.1,2,0.4c0.6,0.3,1.2,0.6,1.7,1.1c0.5,0.5,0.8,1,1.1,1.7
	c0.3,0.6,0.4,1.3,0.4,2c0,0.9-0.2,1.8-0.7,2.6c-0.5,0.8-1.1,1.4-1.9,1.9s-1.7,0.7-2.6,0.7s-1.8-0.2-2.6-0.7
	c-0.8-0.5-1.4-1.1-1.9-1.9C10,16.4,9.8,15.6,9.8,14.6z M11.5,14.6c0,1,0.3,1.8,1,2.5c0.7,0.7,1.5,1,2.5,1s1.8-0.4,2.5-1s1-1.5,1-2.5
	c0-1-0.4-1.8-1-2.5c-0.7-0.7-1.5-1-2.5-1c-1,0-1.8,0.3-2.5,1C11.8,12.8,11.5,13.7,11.5,14.6z M14.1,22.4c0-0.2,0.1-0.4,0.3-0.6
	s0.4-0.2,0.6-0.2c0.2,0,0.4,0.1,0.6,0.2s0.2,0.4,0.2,0.6v2c0,0.2-0.1,0.5-0.3,0.6s-0.4,0.3-0.6,0.3s-0.4-0.1-0.6-0.3
	c-0.2-0.2-0.3-0.4-0.3-0.6C14.1,24.4,14.1,22.4,14.1,22.4z M14.1,6.9v-2c0-0.2,0.1-0.4,0.3-0.6S14.8,4,15,4s0.4,0.1,0.6,0.2
	s0.3,0.4,0.3,0.6v2.1c0,0.2-0.1,0.4-0.3,0.6S15.2,7.7,15,7.7s-0.4-0.1-0.6-0.2S14.1,7.1,14.1,6.9z M19.7,20.1c0-0.2,0.1-0.4,0.2-0.6
	c0.1-0.2,0.3-0.2,0.6-0.2c0.2,0,0.4,0.1,0.6,0.2l1.5,1.4c0.2,0.2,0.2,0.4,0.2,0.6c0,0.2-0.1,0.4-0.2,0.6c-0.4,0.3-0.8,0.3-1.2,0
	l-1.4-1.4C19.7,20.5,19.7,20.3,19.7,20.1z M19.7,9.2c0-0.3,0.1-0.4,0.2-0.6l1.4-1.5c0.2-0.2,0.4-0.2,0.6-0.2c0.2,0,0.4,0.1,0.6,0.3
	c0.2,0.2,0.3,0.4,0.3,0.6c0,0.3-0.1,0.5-0.2,0.6L21,9.8c-0.2,0.2-0.4,0.2-0.6,0.2c-0.2,0-0.4-0.1-0.6-0.2S19.7,9.4,19.7,9.2z
	 M21.9,14.6c0-0.2,0.1-0.4,0.2-0.6c0.2-0.2,0.4-0.2,0.6-0.2h2c0.2,0,0.4,0.1,0.6,0.3s0.3,0.4,0.3,0.6s-0.1,0.4-0.3,0.6
	s-0.4,0.3-0.6,0.3h-2c-0.2,0-0.4-0.1-0.6-0.3S21.9,14.9,21.9,14.6z"/>
</svg>
