<?xml version="1.0" encoding="utf-8"?>
<!-- Generator: Adobe Illustrator 23.0.0, SVG Export Plug-In . SVG Version: 6.00 Build 0)  -->
<svg version="1.1" id="Layer_1" xmlns="http://www.w3.org/2000/svg" xmlns:xlink="http://www.w3.org/1999/xlink" x="0px" y="0px"
	 viewBox="0 0 30 30" style="enable-background:new 0 0 30 30;" xml:space="preserve">
<style type="text/css">
	.st0{fill:#ABB2BF;}
</style>
<path class="st0" d="M1.5,16.9c0,1.1,0.3,2.1,1,3s1.5,1.5,2.6,1.8l-0.6,1.7c0,0.1,0,0.2,0.1,0.2h2.1l-1.3,3.9h0.3l4.2-5.4
	c0,0,0-0.1,0-0.1c0-0.1-0.1-0.1-0.1-0.1H7.6l2.5-4.6c0.1-0.1,0-0.2-0.1-0.2H7c-0.1,0-0.2,0-0.2,0.1l-1.1,2.9
	c-0.7-0.2-1.3-0.6-1.8-1.2s-0.7-1.3-0.7-2c0-0.8,0.3-1.5,0.9-2.2s1.3-1,2.1-1.1l0.5-0.1c0.1,0,0.2-0.1,0.2-0.2L7,12.9
	c0.1-1.1,0.6-2,1.4-2.7c0.8-0.7,1.8-1.1,2.9-1.1s2,0.4,2.9,1.1s1.3,1.6,1.4,2.7l0.1,0.6c0,0.1,0.1,0.2,0.2,0.2h1.6
	c0.9,0,1.7,0.3,2.3,0.9s1,1.4,1,2.3c0,0.9-0.3,1.6-0.9,2.2s-1.3,1-2.2,1c-0.1,0-0.2,0.1-0.2,0.2v1.4c0,0.1,0.1,0.2,0.2,0.2
	c1.3,0,2.5-0.5,3.4-1.5c0.9-1,1.4-2.1,1.4-3.5c0-0.7-0.1-1.4-0.4-2c0.8-1,1.2-2.1,1.2-3.3c0-0.9-0.2-1.8-0.7-2.6S21.2,7.5,20.4,7
	c-0.8-0.5-1.7-0.7-2.6-0.7c-1.5,0-2.8,0.6-3.9,1.7c-0.8-0.4-1.7-0.7-2.7-0.7c-1.4,0-2.7,0.4-3.8,1.3s-1.8,2-2.1,3.4
	c-1.1,0.3-2,0.8-2.7,1.7S1.5,15.7,1.5,16.9z M9.6,26.5c0,0.1,0,0.3,0.1,0.4s0.3,0.3,0.5,0.3c0.1,0,0.1,0,0.2,0c0.2,0,0.3,0,0.5-0.1
	s0.3-0.3,0.3-0.5l2.3-8.6c0.1-0.2,0-0.5-0.1-0.6c-0.1-0.2-0.3-0.3-0.5-0.4c-0.2-0.1-0.4,0-0.6,0.1c-0.2,0.1-0.3,0.3-0.4,0.5
	l-2.3,8.6C9.6,26.3,9.6,26.4,9.6,26.5z M9.9,4.6c0,0.2,0.1,0.4,0.3,0.6l0.6,0.7C11,6,11.2,6.1,11.4,6.1c0.2,0,0.4-0.1,0.6-0.3
	c0.2-0.2,0.3-0.3,0.3-0.6c0-0.2-0.1-0.4-0.3-0.6L11.4,4c-0.2-0.2-0.4-0.2-0.6-0.2c-0.3,0-0.5,0.1-0.6,0.2C10,4.2,9.9,4.4,9.9,4.6z
	 M13.8,23.4c0,0.1,0,0.2,0.1,0.4c0.1,0.2,0.3,0.3,0.5,0.4c0.1,0,0.2,0,0.3,0c0.1,0,0.3,0,0.3-0.1c0.2-0.1,0.3-0.3,0.4-0.6l1.5-5.6
	c0.1-0.2,0-0.5-0.1-0.6c-0.1-0.2-0.3-0.3-0.5-0.4s-0.4,0-0.6,0.1c-0.2,0.1-0.3,0.3-0.4,0.5l-1.5,5.6c0,0,0,0.1,0,0.1
	C13.8,23.4,13.8,23.4,13.8,23.4z M15.3,9c0.7-0.6,1.5-1,2.5-1c1,0,1.8,0.3,2.5,1s1,1.5,1,2.5c0,0.6-0.2,1.2-0.5,1.9
	c-1-1-2.2-1.5-3.5-1.5H17C16.7,10.8,16.1,9.8,15.3,9z M16.9,3.8c0,0.2,0.1,0.4,0.3,0.6s0.4,0.3,0.6,0.3c0.2,0,0.4-0.1,0.6-0.3
	s0.2-0.4,0.2-0.6V1.7c0-0.2-0.1-0.4-0.2-0.6S18,0.9,17.8,0.9c-0.2,0-0.4,0.1-0.6,0.3s-0.3,0.4-0.3,0.6V3.8z M22.4,6.1
	c0,0.2,0.1,0.4,0.3,0.6c0.1,0.2,0.3,0.3,0.6,0.3s0.4-0.1,0.6-0.3l1.4-1.4c0.2-0.2,0.3-0.3,0.3-0.6c0-0.2-0.1-0.4-0.3-0.6
	c-0.2-0.2-0.4-0.2-0.6-0.2c-0.2,0-0.4,0.1-0.6,0.3l-1.4,1.4C22.5,5.6,22.4,5.8,22.4,6.1z M23.3,17.9c0,0.2,0.1,0.4,0.2,0.6l0.7,0.6
	c0.1,0.1,0.3,0.2,0.5,0.2l0,0c0,0,0,0,0,0c0,0,0,0,0,0c0.2,0,0.4-0.1,0.5-0.3c0.2-0.2,0.3-0.4,0.3-0.6c0-0.2-0.1-0.4-0.3-0.6
	l-0.6-0.6c-0.2-0.2-0.4-0.3-0.6-0.3c-0.2,0-0.4,0.1-0.6,0.3C23.3,17.5,23.3,17.7,23.3,17.9z M24.7,11.6c0,0.2,0.1,0.4,0.3,0.6
	c0.2,0.2,0.4,0.3,0.6,0.3h2c0.2,0,0.4-0.1,0.6-0.3s0.3-0.4,0.3-0.6s-0.1-0.4-0.3-0.6s-0.4-0.2-0.6-0.2h-2c-0.3,0-0.5,0.1-0.6,0.2
	C24.8,11.1,24.7,11.3,24.7,11.6z"/>
</svg>
